<svg version="1.2" xmlns="http://www.w3.org/2000/svg" viewBox="0 0 348 493" width="348" height="493"><style></style><path fill-rule="evenodd" d="m174.2 0.6c76.3-0.5 146.7 50.3 167.4 127.4 4.7 17.4 5.9 34.5 5.8 50.9-0.3 58.2-31.5 108.5-66.8 157.3-35.3 48.9-75.1 96.9-96.3 149.5-1.7 4.2-5.8 6.9-10.3 6.9-4.5 0-8.6-2.7-10.3-6.9-21.2-52.6-61-100.6-96.3-149.5-35.3-48.8-66.5-99.1-66.8-157.3-0.1-16.4 1.1-33.5 5.7-50.9 20.8-77.1 91.1-127.9 167.5-127.4q0.2 0 0.4 0zm-146.2 133.2c-3.9 14.7-5.1 29.9-5 45.1 0.2 50.2 28 96.3 62.6 144.2 30.3 41.8 64.6 84.9 88.4 133 23.8-48.1 58.1-91.2 88.4-133 34.6-47.9 62.4-94 62.6-144.2 0.1-15.2-1.1-30.4-5.1-45.1-18.1-67.4-79.3-111.4-145.7-110.8h-0.4c-66.4-0.6-127.6 43.4-145.8 110.8zm217.6 38.8c0 39.5-32.2 71.7-71.8 71.6-39.5-0.1-72-32.2-72.1-71.8 0-39.5 32.4-71.8 71.9-71.7 39.6 0 71.9 32.4 72 71.9zm-121.5-0.2c0.1 27.5 22.1 49.4 49.5 49.4 27.5 0 49.6-21.8 49.6-49.2-0.1-27.4-22.1-49.5-49.6-49.5-27.4 0-49.5 21.9-49.5 49.3z"/></svg>