<svg version="1.2" xmlns="http://www.w3.org/2000/svg" viewBox="0 0 476 444" width="476" height="444"><style></style><path fill-rule="evenodd" d="m475.9 334.9c0.5 41-14.3 70-45 88.6-22.6 13.7-46.1 20.4-71.2 20.4-12.6 0-25.6-1.7-39.1-5.1-28.3-7.2-55.6-17.1-81.3-29.4-24.8-11.8-48.8-26.4-71.2-43.1-21.7-16.1-42.6-34.8-62-55.5-18.7-20-36.8-42.4-53.8-66.7-20.8-29.9-43.5-65.3-50.2-108.2-0.8-4.8-1.2-9.7-1.5-14.5-0.2-2.1-0.3-4.2-0.5-6.4l-0.1-0.3v-0.3c0.3-18.9 3.8-36.4 10.3-52.2 6.7-16.2 16.7-31 30-44 22.1-21.8 49.5-19.6 70.9-15.3 7.9 1.6 14.2 10.3 16.6 15.8 14 31.7 27.4 62.8 39.2 94.5 3.3 9 0.1 21.5-4.8 29.3-5.8 9.4-13.4 17.6-20.7 25.5-1.8 2-3.7 4.1-5.5 6.1-5.7 6.3-6.1 11.8-1.3 19.6 37.4 61.1 84.8 102.7 144.9 127.4 16.5 6.7 21 5.6 31.9-8.2 6.7-8.4 13-17.4 19.2-26.1q1.8-2.5 3.6-5c10-14.2 23.5-18.2 38-11.4 25.3 11.9 58.6 27.6 92 44.7 6.8 3.4 11.6 13.2 11.6 19.8zm-17.3-8.8c-33.2-17-66.4-32.7-91.6-44.5-5.6-2.6-14-4.7-22.5 7.4q-1.8 2.4-3.6 5c-6.2 8.7-12.7 17.9-19.5 26.5-7.7 9.7-13.7 14.4-20.7 16.2-8.4 2.2-17.4-0.8-25.8-4.2-31.9-13-60.9-31.1-86.4-53.9-24.1-21.6-45.8-48-64.5-78.5-7.6-12.5-6.7-24.1 2.7-34.5 1.9-2.1 3.8-4.2 5.7-6.2 7.2-7.8 14-15.2 19.3-23.6 3.4-5.6 5.2-14.2 3.6-18.3-11.7-31.4-25-62.3-38.9-93.9-1.8-4-5.7-8.1-7.7-8.5-27.6-5.6-45.4-2-59.6 12-23.9 23.5-35.9 52-36.5 87q0.2 3.2 0.5 6.3c0.4 4.7 0.7 9.2 1.4 13.5 6.3 40.3 28.1 74.3 48.1 102.9 70.2 100.9 155.6 162.9 261.2 189.8 36.8 9.4 69.8 4.9 100.6-13.8 27-16.4 39.5-41.1 39.1-77.7-0.1-3-3.1-7.9-4.9-9z"/></svg>