<svg version="1.2" xmlns="http://www.w3.org/2000/svg" viewBox="0 0 526 526" width="526" height="526"><style></style><path fill-rule="evenodd" d="m525.5 263c0 144.9-117.6 262.5-262.5 262.5-144.9 0-262.5-117.6-262.5-262.5 0-144.9 117.6-262.5 262.5-262.5 144.9 0 262.5 117.6 262.5 262.5zm-490 0c0 125.6 101.9 227.5 227.5 227.5 125.6 0 227.5-101.9 227.5-227.5 0-125.6-101.9-227.5-227.5-227.5-125.6 0-227.5 101.9-227.5 227.5zm227.5-192.5c9.7 0 17.5 7.8 17.5 17.5v167.7l114.8 114.8c6.8 6.8 6.8 17.9 0 24.8-6.9 6.8-18 6.8-24.8 0l-119.9-119.9c-3.3-3.3-5.1-7.8-5.1-12.4v-175c0-9.7 7.8-17.5 17.5-17.5z"/></svg>